<svg width="31" height="30" viewBox="0 0 31 30" fill="none" xmlns="http://www.w3.org/2000/svg">
<path d="M29.3991 11.2795C29.1558 10.531 28.5087 9.9853 27.7297 9.87226L20.388 8.80563L17.1043 2.15265C16.7561 1.4468 16.0371 1 15.25 1C14.4628 1 13.744 1.4468 13.3957 2.15265L10.1123 8.80563L2.7706 9.87226C1.9917 9.9853 1.34444 10.531 1.10139 11.2795C0.857934 12.0281 1.06087 12.8499 1.62458 13.3994L6.93701 18.5781L5.68276 25.8899C5.54972 26.6658 5.86873 27.4498 6.50551 27.9125C7.14228 28.3753 7.98654 28.4361 8.68314 28.0701L15.2501 24.618L21.8171 28.0701C22.1197 28.229 22.45 28.3076 22.7791 28.3076H22.7869C23.9267 28.3051 24.85 27.3802 24.85 26.2397C24.85 26.081 24.8321 25.9263 24.7982 25.7776L23.5632 18.5781L28.8758 13.3994C29.4395 12.85 29.6421 12.0283 29.3991 11.2795V11.2795Z" stroke="#4F58BD" stroke-width="2"/>
</svg>
